<?xml version="1.0" standalone="no"?>
<!DOCTYPE svg PUBLIC "-//W3C//DTD SVG 20010904//EN"
 "http://www.w3.org/TR/2001/REC-SVG-20010904/DTD/svg10.dtd">
<svg version="1.0" xmlns="http://www.w3.org/2000/svg"
 width="600.000000pt" height="600.000000pt" viewBox="0 0 600.000000 600.000000"
 preserveAspectRatio="xMidYMid meet">
<g transform="translate(0.000000,600.000000) scale(0.100000,-0.100000)"
fill="#000000" stroke="none">
<path d="M2177 4443 c-9 -2 -14 -9 -11 -15 4 -6 2 -8 -4 -5 -12 8 -131 -20
-150 -36 -7 -5 -15 -7 -19 -3 -3 3 0 6 7 6 7 0 11 2 8 5 -8 9 -38 -6 -32 -16
4 -8 -20 -13 -29 -6 -2 1 -12 -6 -22 -16 -14 -15 -20 -16 -26 -5 -8 12 -13 4
-10 -15 1 -5 -3 -6 -9 -2 -5 3 -10 1 -10 -5 0 -6 -4 -8 -10 -5 -5 3 -10 2 -10
-3 0 -6 -16 -19 -36 -31 -40 -24 -48 -26 -38 -9 4 7 3 8 -5 4 -6 -4 -9 -11 -6
-16 10 -16 -26 -40 -55 -36 -20 2 -27 -1 -23 -10 3 -8 9 -11 14 -8 16 10 9 -9
-17 -48 -24 -34 -46 -55 -28 -26 4 7 3 8 -4 4 -6 -4 -8 -14 -5 -23 5 -12 2
-15 -10 -10 -12 4 -14 2 -10 -10 5 -12 3 -14 -7 -8 -8 5 -11 4 -7 -2 3 -5 -5
-32 -18 -59 -14 -27 -25 -55 -25 -62 0 -7 -4 -10 -10 -7 -5 3 -7 0 -4 -9 3 -8
2 -21 -2 -28 -5 -7 -10 -24 -12 -38 -2 -13 -9 -28 -15 -32 -9 -5 -8 -8 3 -8 9
0 11 -3 5 -8 -10 -7 -11 -13 -19 -117 -13 -167 -17 -1050 -7 -1280 13 -284 13
-287 34 -337 8 -20 13 -39 10 -42 -3 -2 7 -29 21 -60 14 -30 26 -60 26 -65 0
-6 5 -11 10 -11 6 0 15 -11 20 -25 5 -14 15 -25 22 -25 9 0 8 -3 -2 -10 -11
-7 -11 -10 -2 -10 7 0 10 -5 6 -12 -4 -6 -3 -8 3 -5 12 8 46 -27 36 -36 -3 -4
-1 -7 5 -7 7 0 12 -5 12 -11 0 -5 -6 -7 -12 -3 -9 5 -9 2 1 -9 15 -18 26 -23
16 -7 -3 6 1 10 9 10 9 0 25 -18 36 -41 19 -35 23 -39 38 -27 11 9 14 10 8 1
-4 -8 -1 -13 8 -13 9 0 16 -4 16 -10 0 -5 7 -10 15 -10 8 0 15 -5 15 -11 0 -6
6 -9 13 -6 8 3 20 1 28 -4 12 -7 12 -12 0 -31 l-14 -23 22 19 c18 16 24 17 34
6 7 -8 8 -11 1 -7 -7 4 -18 -1 -25 -10 -12 -15 -12 -16 1 -8 8 5 26 11 40 12
20 3 22 1 10 -8 -13 -9 -13 -10 1 -6 9 3 45 -3 80 -12 35 -10 71 -16 79 -14
13 4 13 3 0 -6 -12 -8 -9 -10 15 -10 17 -1 64 -1 105 -1 57 0 71 -2 60 -11
-12 -9 -11 -10 5 -4 11 3 336 6 722 6 419 -1 712 3 727 9 16 6 26 5 28 -1 2
-6 14 -6 33 1 37 12 155 41 173 42 6 1 12 5 12 9 0 4 16 6 35 5 19 -2 32 0 29
5 -3 5 0 9 7 9 7 0 9 3 6 6 -4 4 -15 1 -24 -7 -16 -13 -17 -12 -4 3 9 12 21
16 40 12 20 -4 23 -3 11 5 -12 9 -11 11 8 11 12 0 25 6 28 14 3 8 14 13 25 11
10 -2 18 1 16 8 -1 7 3 11 8 10 6 0 16 5 23 13 7 8 10 14 7 14 -3 0 3 8 13 18
9 11 20 17 25 15 4 -3 6 -1 5 4 -2 4 2 8 7 8 6 0 9 -2 8 -5 -1 -3 7 -6 18 -6
18 0 18 2 5 12 -19 13 -21 30 -4 40 7 5 8 3 3 -6 -6 -9 -4 -11 4 -6 7 5 10 11
7 14 -8 7 24 42 38 42 6 0 4 -5 -4 -10 -8 -5 -11 -10 -7 -10 5 0 20 9 34 20
14 11 21 20 16 20 -5 0 -14 -5 -21 -12 -19 -19 -15 14 4 38 8 10 13 14 10 7
-4 -6 -3 -14 2 -17 4 -2 9 8 10 24 3 37 30 101 51 118 9 7 10 10 2 6 -11 -6
-13 -3 -7 12 5 10 9 25 9 32 0 6 7 12 16 12 14 0 14 2 1 10 -8 5 -10 10 -4 10
17 0 19 78 19 906 0 688 -2 793 -15 809 -13 17 -13 18 0 10 13 -8 13 -7 1 8
-10 12 -10 17 -2 17 8 0 7 6 -3 16 -9 8 -16 23 -16 33 0 9 -5 22 -12 29 -16
16 4 16 22 0 12 -11 12 -10 2 3 -6 9 -9 19 -5 23 4 4 -1 4 -11 0 -14 -5 -17
-4 -12 4 4 7 3 12 -1 12 -11 0 -38 70 -35 88 2 7 -1 12 -5 11 -22 -4 -25 2 -7
16 18 14 18 14 -2 9 -26 -7 -40 12 -24 31 10 12 8 13 -10 10 -23 -4 -41 27
-33 55 4 13 3 13 -5 0 -6 -8 -8 -18 -5 -24 4 -5 1 -6 -6 -1 -7 4 -11 15 -8 25
3 13 0 17 -9 13 -15 -6 -86 62 -76 72 4 3 -1 3 -11 -1 -12 -4 -16 -2 -12 8 4
9 -2 14 -17 15 -12 1 -28 10 -35 19 -7 9 -17 13 -25 8 -7 -4 -10 -3 -5 1 6 8
-59 39 -103 50 -8 2 -28 8 -44 14 -16 7 -31 10 -33 7 -2 -2 -24 2 -48 9 -35
11 -213 14 -849 15 -443 0 -812 2 -818 4 -7 2 -21 2 -31 -1z m1727 -53 c49
-11 128 -38 175 -61 119 -57 240 -177 299 -296 79 -159 77 -135 77 -1038 0
-900 4 -854 -77 -1025 -34 -70 -55 -100 -127 -170 -98 -98 -196 -153 -341
-192 l-85 -23 -830 0 -830 0 -80 23 c-143 40 -239 95 -336 192 -71 70 -94 101
-127 170 -80 170 -77 124 -77 1030 0 909 -4 855 81 1028 72 147 198 262 361
327 131 53 136 53 1013 54 775 1 819 0 904 -19z m-2116 -2675 c-3 -3 -9 2 -12
12 -6 14 -5 15 5 6 7 -7 10 -15 7 -18z"/>
<path d="M1866 4253 c-6 -14 -5 -15 5 -6 7 7 10 15 7 18 -3 3 -9 -2 -12 -12z"/>
<path d="M4177 4210 c10 -11 10 -17 0 -29 -7 -10 -2 -8 11 3 12 11 22 21 22
24 0 3 -3 2 -7 -1 -3 -4 -13 -1 -22 5 -13 10 -14 10 -4 -2z"/>
<path d="M1721 4131 c-10 -6 -9 -10 4 -15 9 -3 13 -10 10 -16 -4 -6 -10 -8
-15 -5 -5 3 -11 1 -14 -4 -5 -8 15 -8 34 -1 3 1 9 2 14 1 5 -1 3 6 -5 15 -8 9
-12 19 -11 21 7 9 -4 12 -17 4z"/>
<path d="M4240 4136 c0 -2 8 -10 18 -17 15 -13 16 -12 3 4 -13 16 -21 21 -21
13z"/>
<path d="M2186 4099 c-120 -20 -250 -120 -301 -232 -14 -29 -29 -84 -35 -122
-13 -93 -13 -1397 0 -1490 24 -164 122 -283 277 -337 l68 -23 810 0 810 0 65
23 c82 28 153 82 201 152 77 112 73 70 77 870 2 464 -1 743 -7 795 -26 192
-162 335 -348 365 -71 12 -1547 11 -1617 -1z m1631 -26 c18 -3 31 -9 28 -13
-3 -5 5 -6 17 -2 13 3 19 1 15 -5 -4 -6 0 -14 9 -17 8 -3 12 -2 9 4 -4 6 1 7
12 3 35 -13 58 -29 94 -63 40 -39 110 -138 88 -125 -11 7 -11 6 1 -9 8 -10 15
-28 17 -39 2 -17 1 -19 -7 -7 -7 12 -9 10 -7 -7 0 -12 4 -20 8 -17 14 9 21
-18 27 -109 10 -159 5 -1403 -7 -1424 0 -2 -1 -6 0 -9 0 -4 -5 -11 -13 -15
-10 -7 -10 -9 0 -9 8 0 10 -5 5 -12 -4 -7 -8 -15 -8 -18 -6 -43 -60 -130 -81
-130 -14 0 -14 3 -3 18 11 14 11 15 -1 5 -20 -19 -21 -43 -2 -36 10 3 1 -5
-18 -18 -19 -13 -38 -29 -43 -36 -4 -7 -23 -15 -42 -19 -21 -4 -32 -10 -28
-17 4 -6 -2 -8 -15 -5 -12 3 -23 1 -25 -6 -3 -8 -220 -11 -834 -11 -723 0
-832 2 -848 15 -17 13 -18 13 -10 0 8 -13 7 -13 -10 0 -10 8 -19 13 -19 11 -1
-2 -11 -1 -24 3 -12 4 -20 11 -17 16 3 4 -2 13 -10 20 -13 11 -14 10 -8 -6 6
-16 4 -17 -9 -7 -8 7 -19 9 -23 5 -5 -4 -5 -2 -2 4 4 6 -9 19 -28 30 -31 17
-33 20 -19 35 10 12 12 19 4 24 -6 3 -9 1 -8 -6 2 -6 -4 -14 -12 -17 -8 -2
-12 -1 -8 3 4 4 -1 15 -11 24 -27 23 -61 78 -41 66 13 -7 12 -5 -1 11 -8 10
-16 30 -17 44 -1 14 -6 26 -11 28 -6 2 -10 266 -10 750 0 774 2 822 41 870 11
13 11 14 -1 7 -17 -10 -13 -4 41 74 21 30 38 50 38 45 1 -5 9 1 19 13 10 12
21 20 23 18 3 -3 13 4 23 15 10 11 23 20 29 20 6 0 4 -5 -4 -10 -8 -5 -10 -10
-5 -10 15 0 37 16 36 26 0 5 11 12 24 16 18 4 23 3 18 -5 -5 -9 -3 -9 8 0 8 6
25 13 39 16 35 6 1578 7 1617 0z"/>
<path d="M3900 4020 c-9 -6 -10 -10 -3 -10 6 0 15 5 18 10 8 12 4 12 -15 0z"/>
<path d="M2445 3843 c-16 -3 -43 -16 -58 -31 -25 -24 -30 -25 -50 -13 -20 13
-21 13 -9 -1 11 -14 9 -20 -11 -40 -13 -13 -21 -30 -19 -37 3 -9 0 -11 -8 -6
-10 6 -12 2 -8 -13 4 -14 2 -20 -5 -15 -7 4 -8 0 -3 -12 4 -10 0 -28 -9 -41
-9 -13 -12 -24 -8 -24 5 0 9 -129 9 -288 2 -344 8 -437 32 -495 7 -16 12 -34
12 -41 0 -7 3 -16 7 -20 4 -3 8 -13 9 -21 1 -8 12 -28 23 -44 23 -31 27 -46
11 -36 -6 3 -7 -1 -4 -10 5 -13 9 -13 22 -3 9 8 13 8 9 2 -4 -7 0 -17 8 -24 7
-6 11 -19 8 -27 -5 -12 -3 -14 7 -8 10 6 12 4 7 -7 -3 -10 3 -19 18 -26 27
-13 67 -66 57 -77 -4 -5 -1 -5 6 -1 10 6 11 11 0 24 -7 10 1 5 18 -10 17 -16
36 -28 43 -28 7 0 9 -5 6 -10 -4 -6 -3 -9 2 -8 4 2 19 -5 33 -15 21 -15 23
-19 10 -27 -9 -6 -10 -10 -3 -10 6 0 15 4 18 10 3 6 11 10 16 10 6 0 7 -4 4
-10 -3 -5 0 -7 8 -4 8 3 36 -6 62 -20 26 -14 51 -23 56 -20 5 3 9 0 9 -7 0 -7
9 -9 22 -6 11 3 34 -1 51 -9 16 -9 27 -11 23 -6 -6 10 48 11 57 2 3 -3 49 -3
103 0 54 3 169 3 257 0 87 -3 161 -1 164 3 2 4 13 5 23 2 41 -13 57 -13 57 1
0 9 -4 10 -12 4 -6 -5 -16 -5 -25 2 -12 8 -12 9 2 4 10 -3 20 -1 24 5 3 6 11
8 17 6 10 -3 30 10 63 41 8 8 14 9 14 3 0 -6 4 -11 10 -11 5 0 7 6 4 14 -3 7
2 21 11 29 9 9 15 19 15 22 -1 3 0 9 3 13 2 4 3 2 1 -4 -1 -6 1 -16 5 -23 4
-7 8 37 7 98 0 60 -4 107 -8 105 -12 -8 -9 31 3 43 8 8 7 13 -2 18 -7 5 -10 4
-6 -2 4 -6 -1 -17 -10 -24 -9 -8 -14 -9 -11 -4 9 14 0 26 -44 59 -20 15 -36
33 -34 39 1 7 1 9 -1 5 -3 -5 -11 -8 -19 -8 -9 0 -13 4 -10 9 3 4 -131 9 -298
10 -306 2 -364 7 -358 31 3 11 0 11 -12 1 -12 -10 -16 -9 -25 6 -6 10 -11 15
-11 11 0 -4 -14 6 -30 24 -17 17 -28 38 -25 45 2 8 1 12 -4 9 -5 -3 -15 2 -22
11 -11 12 -16 96 -21 382 -7 390 -8 402 -20 395 -4 -3 -8 2 -8 11 0 10 -5 13
-12 9 -8 -5 -8 -2 1 10 8 9 10 16 5 14 -10 -3 -65 37 -65 46 1 3 -1 6 -5 5 -3
0 -16 7 -30 16 -13 9 -29 13 -34 10 -5 -3 -11 -1 -15 5 -6 10 -42 11 -100 3z
m123 -39 c49 -20 90 -60 113 -109 17 -36 19 -70 19 -361 0 -352 4 -386 59
-461 19 -26 50 -51 88 -69 l58 -29 305 -5 c338 -6 338 -5 398 -74 83 -94 53
-237 -61 -299 -41 -22 -49 -22 -372 -22 -284 0 -339 2 -395 18 -231 62 -402
234 -460 463 -18 70 -20 112 -20 442 0 351 1 367 21 409 45 92 155 136 247 97z"/>
<path d="M2385 3729 c-4 -6 -5 -12 -2 -15 2 -3 7 2 10 11 7 17 1 20 -8 4z"/>
<path d="M2665 2959 c-4 -6 -5 -12 -2 -15 2 -3 7 2 10 11 7 17 1 20 -8 4z"/>
<path d="M2723 2825 c0 -8 4 -12 8 -9 4 2 10 -2 12 -8 4 -8 6 -9 6 -2 1 6 -5
17 -12 23 -10 8 -14 7 -14 -4z"/>
<path d="M2828 2743 c7 -3 16 -2 19 1 4 3 -2 6 -13 5 -11 0 -14 -3 -6 -6z"/>
<path d="M2897 2733 c-3 -5 6 -9 20 -10 19 -1 22 1 12 8 -17 11 -26 11 -32 2z"/>
<path d="M2459 2703 c-13 -16 -12 -17 4 -4 9 7 17 15 17 17 0 8 -8 3 -21 -13z"/>
<path d="M2425 2701 c-3 -5 -2 -12 3 -15 5 -3 9 1 9 9 0 17 -3 19 -12 6z"/>
<path d="M3580 2666 c0 -2 7 -7 16 -10 8 -3 12 -2 9 4 -6 10 -25 14 -25 6z"/>
<path d="M3609 2533 c-13 -16 -12 -17 4 -4 16 13 21 21 13 21 -2 0 -10 -8 -17
-17z"/>
<path d="M3530 2475 c0 -2 6 -8 13 -14 10 -8 14 -7 14 2 0 8 -6 14 -14 14 -7
0 -13 -1 -13 -2z"/>
<path d="M3523 2445 c0 -8 4 -12 9 -9 5 3 6 10 3 15 -9 13 -12 11 -12 -6z"/>
<path d="M2355 3810 c-3 -5 -1 -10 4 -10 6 0 11 5 11 10 0 6 -2 10 -4 10 -3 0
-8 -4 -11 -10z"/>
<path d="M2864 2872 c3 -5 0 -13 -6 -15 -9 -4 -10 -6 -1 -6 17 -1 25 16 12 25
-7 4 -9 3 -5 -4z"/>
<path d="M3653 2427 c0 -8 6 -14 14 -14 9 0 10 4 2 14 -6 7 -12 13 -14 13 -1
0 -2 -6 -2 -13z"/>
<path d="M2820 2346 c0 -3 9 -10 20 -16 11 -6 20 -8 20 -6 0 3 -9 10 -20 16
-11 6 -20 8 -20 6z"/>
<path d="M3926 1992 c-3 -5 1 -9 9 -9 8 0 12 4 9 9 -3 4 -7 8 -9 8 -2 0 -6 -4
-9 -8z"/>
<path d="M4326 4032 c-3 -5 1 -9 9 -9 8 0 12 4 9 9 -3 4 -7 8 -9 8 -2 0 -6 -4
-9 -8z"/>
<path d="M1665 3999 c-4 -6 -5 -12 -2 -15 2 -3 7 2 10 11 7 17 1 20 -8 4z"/>
<path d="M1856 3912 c-3 -5 1 -9 9 -9 8 0 12 4 9 9 -3 4 -7 8 -9 8 -2 0 -6 -4
-9 -8z"/>
<path d="M4404 3780 c0 -13 4 -16 10 -10 7 7 7 13 0 20 -6 6 -10 3 -10 -10z"/>
<path d="M4143 2095 c0 -8 4 -12 9 -9 5 3 6 10 3 15 -9 13 -12 11 -12 -6z"/>
<path d="M1640 2066 c0 -2 8 -10 18 -17 15 -13 16 -12 3 4 -13 16 -21 21 -21
13z"/>
<path d="M1876 2047 c3 -10 9 -15 12 -12 3 3 0 11 -7 18 -10 9 -11 8 -5 -6z"/>
<path d="M4326 2047 c3 -10 9 -15 12 -12 3 3 0 11 -7 18 -10 9 -11 8 -5 -6z"/>
<path d="M1646 2017 c3 -10 9 -15 12 -12 3 3 0 11 -7 18 -10 9 -11 8 -5 -6z"/>
<path d="M1867 2019 c7 -7 15 -10 18 -7 3 3 -2 9 -12 12 -14 6 -15 5 -6 -5z"/>
<path d="M1908 2023 c6 -2 9 -10 6 -15 -4 -7 -2 -8 5 -4 13 9 5 26 -12 25 -9
0 -8 -2 1 -6z"/>
<path d="M4055 1991 c-3 -5 -2 -12 3 -15 5 -3 9 1 9 9 0 17 -3 19 -12 6z"/>
<path d="M4009 1968 c-6 -20 -6 -39 0 -42 4 -3 7 6 7 20 0 20 -4 32 -7 22z"/>
<path d="M4244 1900 c0 -10 2 -17 5 -15 2 3 11 -1 19 -8 11 -9 11 -4 -2 16
-22 32 -22 32 -22 7z"/>
<path d="M3903 1855 c0 -8 4 -12 9 -9 5 3 6 10 3 15 -9 13 -12 11 -12 -6z"/>
<path d="M4185 1831 c-3 -5 -2 -12 3 -15 5 -3 9 1 9 9 0 17 -3 19 -12 6z"/>
<path d="M1826 1817 c3 -10 9 -15 12 -12 3 3 0 11 -7 18 -10 9 -11 8 -5 -6z"/>
<path d="M4175 1791 c-3 -5 -2 -12 3 -15 5 -3 9 1 9 9 0 17 -3 19 -12 6z"/>
<path d="M1857 1749 c7 -7 15 -10 18 -7 3 3 -2 9 -12 12 -14 6 -15 5 -6 -5z"/>
<path d="M2039 1663 c-13 -16 -12 -17 4 -4 9 7 17 15 17 17 0 8 -8 3 -21 -13z"/>
<path d="M2066 1651 c-4 -5 3 -7 14 -4 23 6 26 13 6 13 -8 0 -17 -4 -20 -9z"/>
<path d="M1880 4396 c0 -2 7 -7 16 -10 8 -3 12 -2 9 4 -6 10 -25 14 -25 6z"/>
<path d="M4141 4353 c7 -12 15 -20 18 -17 3 2 -3 12 -13 22 -17 16 -18 16 -5
-5z"/>
<path d="M4465 3919 c-4 -6 -5 -12 -2 -15 2 -3 7 2 10 11 7 17 1 20 -8 4z"/>
<path d="M1609 1918 c-5 -9 -5 -48 -1 -43 6 6 11 45 5 45 -2 0 -4 -1 -4 -2z"/>
<path d="M1615 1861 c-3 -5 -2 -12 3 -15 5 -3 9 1 9 9 0 17 -3 19 -12 6z"/>
<path d="M1877 1646 c-4 -10 -1 -13 8 -9 8 3 12 9 9 14 -7 12 -11 11 -17 -5z"/>
</g>
</svg>
