<?xml version="1.0" encoding="UTF-8"?>
<svg version="1.1" xmlns="http://www.w3.org/2000/svg" width="1024" height="1024">
<path d="M0 0 C337.92 0 675.84 0 1024 0 C1024 337.92 1024 675.84 1024 1024 C686.08 1024 348.16 1024 0 1024 C0 686.08 0 348.16 0 0 Z " fill="#070707" transform="translate(0,0)"/>
<path d="M0 0 C2.58853344 -0.0021527 5.17706592 -0.00604048 7.76559448 -0.01150513 C13.99671408 -0.02145854 20.22761713 -0.01047575 26.45870972 0.00819547 C33.74158856 0.02921542 41.02442364 0.0288166 48.30732708 0.02785031 C61.31056127 0.02685478 74.31369615 0.04502156 87.31689453 0.07421875 C99.88982957 0.10243451 112.4626774 0.11655755 125.03564453 0.11523438 C125.81158382 0.11515446 126.58752311 0.11507455 127.38697571 0.11499222 C128.54902431 0.11487115 128.54902431 0.11487115 129.73454863 0.11474764 C144.1254783 0.11336359 158.51637152 0.12516602 172.90728932 0.14305408 C177.96657098 0.14904995 183.02584587 0.15120872 188.08513069 0.15211868 C194.90373726 0.15363552 201.72225186 0.16643234 208.5408287 0.18645096 C211.03197489 0.19225581 213.52313146 0.19476093 216.01428413 0.19359589 C232.5456071 0.18879293 248.44486887 0.76725234 264.58959961 4.67333984 C265.91096924 4.99153687 265.91096924 4.99153687 267.2590332 5.31616211 C275.67553686 7.45418254 283.32960266 10.6318235 291.08959961 14.48583984 C292.05897461 14.94603516 293.02834961 15.40623047 294.02709961 15.88037109 C317.70836646 27.82426586 334.30221584 48.79330371 345.08959961 72.48583984 C345.70448242 73.80841797 345.70448242 73.80841797 346.33178711 75.15771484 C355.41781178 96.14713618 355.39106183 119.15191165 355.38012695 141.58837891 C355.38612424 144.0676239 355.3929325 146.54686704 355.40048218 149.02610779 C355.4162102 155.0188317 355.42258503 161.0114937 355.42370693 167.0042325 C355.42466404 171.88395876 355.42880695 176.76367226 355.43510818 181.64339447 C355.45267862 195.53667944 355.46195328 209.42993378 355.46044724 223.32322994 C355.46036732 224.06895664 355.46028741 224.81468334 355.46020508 225.58300781 C355.46012332 226.32966472 355.46004156 227.07632163 355.45995732 227.84560451 C355.45914489 239.93822209 355.47828265 252.03071498 355.50648181 264.12329653 C355.53533608 276.5970583 355.54901535 289.0707595 355.54729426 301.54455543 C355.54663482 308.52475504 355.55192921 315.50482379 355.57365036 322.48499298 C355.59396715 329.05485523 355.59306166 335.62449073 355.5786171 342.19438362 C355.57654547 344.58787251 355.58112996 346.98137923 355.59333801 349.37483788 C355.77995089 388.53669082 345.42859206 421.70301154 317.63647461 449.98193359 C288.44268061 477.99573891 248.64561647 484.15709534 209.73339844 483.98754883 C207.20385947 483.99134433 204.67432259 483.9968544 202.14479065 484.00392151 C196.05602531 484.0163061 189.96752883 484.01043068 183.87877754 483.99524593 C176.75532391 483.97817337 169.63191972 483.98162232 162.5084519 483.98534001 C149.78163429 483.99118616 137.05491634 483.97717399 124.328125 483.95239258 C112.03869902 483.92846624 99.74940604 483.92139846 87.45996094 483.93188477 C74.00373884 483.94334645 60.54757788 483.9451608 47.09135646 483.93078667 C45.65115687 483.92926118 44.21095727 483.92774082 42.77075768 483.92622566 C41.70846021 483.92508894 41.70846021 483.92508894 40.62470219 483.92392926 C35.68394848 483.91922799 30.74322249 483.92100784 25.80246925 483.92529106 C19.12990541 483.93079056 12.45754923 483.91977354 5.78500938 483.89833641 C3.35443609 483.89283032 0.92384517 483.89224537 -1.50672913 483.89728928 C-41.93423716 483.97058819 -79.24584484 475.46032608 -109.16040039 446.61083984 C-132.32312035 422.54859678 -143.08094622 390.73951163 -143.05084229 357.73036194 C-143.05381341 356.69391759 -143.05678453 355.65747324 -143.05984569 354.58962148 C-143.06846837 351.14103812 -143.07003546 347.69248974 -143.0715332 344.24389648 C-143.07616599 341.76096524 -143.08119127 339.2780347 -143.08657837 336.79510498 C-143.09966128 330.06529588 -143.10617708 323.33550031 -143.11058903 316.60568166 C-143.11336208 312.39394904 -143.11760134 308.18221868 -143.1220932 303.97048759 C-143.13427859 292.28210755 -143.14457892 280.59372931 -143.14796829 268.90534306 C-143.14818786 268.15873308 -143.14840742 267.4121231 -143.14863364 266.64288857 C-143.14885192 265.89461156 -143.1490702 265.14633455 -143.14929509 264.37538248 C-143.14973854 262.85938585 -143.1501851 261.34338921 -143.15063477 259.82739258 C-143.1508562 259.07542472 -143.15107763 258.32345687 -143.15130576 257.54870211 C-143.15524816 245.38244326 -143.17268839 233.21624451 -143.19599429 221.05000884 C-143.2197944 208.52341068 -143.23217408 195.99684257 -143.23333621 183.47022146 C-143.23424819 176.45145382 -143.23987897 169.4327645 -143.25815582 162.41401863 C-143.27530893 155.804087 -143.27674524 149.19427665 -143.26801682 142.58432007 C-143.26725157 140.1718398 -143.27152067 137.75935126 -143.28147507 135.3468914 C-143.42058141 99.50337709 -135.77911877 64.77889871 -109.83618164 38.37646484 C-108.86313067 37.41069198 -107.88799523 36.44701296 -106.91040039 35.48583984 C-106.09958008 34.67630859 -105.28875977 33.86677734 -104.45336914 33.03271484 C-93.565967 22.70502989 -80.75321848 15.11894395 -66.91040039 9.48583984 C-65.78891602 9.02435547 -64.66743164 8.56287109 -63.51196289 8.08740234 C-43.18076396 0.54886791 -21.42798709 -0.10533325 0 0 Z " fill="#070707" transform="translate(405.910400390625,270.51416015625)"/>
<path d="M0 0 C2.58853344 -0.0021527 5.17706592 -0.00604048 7.76559448 -0.01150513 C13.99671408 -0.02145854 20.22761713 -0.01047575 26.45870972 0.00819547 C33.74158856 0.02921542 41.02442364 0.0288166 48.30732708 0.02785031 C61.31056127 0.02685478 74.31369615 0.04502156 87.31689453 0.07421875 C99.88982957 0.10243451 112.4626774 0.11655755 125.03564453 0.11523438 C125.81158382 0.11515446 126.58752311 0.11507455 127.38697571 0.11499222 C128.54902431 0.11487115 128.54902431 0.11487115 129.73454863 0.11474764 C144.1254783 0.11336359 158.51637152 0.12516602 172.90728932 0.14305408 C177.96657098 0.14904995 183.02584587 0.15120872 188.08513069 0.15211868 C194.90373726 0.15363552 201.72225186 0.16643234 208.5408287 0.18645096 C211.03197489 0.19225581 213.52313146 0.19476093 216.01428413 0.19359589 C232.5456071 0.18879293 248.44486887 0.76725234 264.58959961 4.67333984 C265.91096924 4.99153687 265.91096924 4.99153687 267.2590332 5.31616211 C275.67553686 7.45418254 283.32960266 10.6318235 291.08959961 14.48583984 C292.05897461 14.94603516 293.02834961 15.40623047 294.02709961 15.88037109 C317.70836646 27.82426586 334.30221584 48.79330371 345.08959961 72.48583984 C345.70448242 73.80841797 345.70448242 73.80841797 346.33178711 75.15771484 C355.41781178 96.14713618 355.39106183 119.15191165 355.38012695 141.58837891 C355.38612424 144.0676239 355.3929325 146.54686704 355.40048218 149.02610779 C355.4162102 155.0188317 355.42258503 161.0114937 355.42370693 167.0042325 C355.42466404 171.88395876 355.42880695 176.76367226 355.43510818 181.64339447 C355.45267862 195.53667944 355.46195328 209.42993378 355.46044724 223.32322994 C355.46036732 224.06895664 355.46028741 224.81468334 355.46020508 225.58300781 C355.46012332 226.32966472 355.46004156 227.07632163 355.45995732 227.84560451 C355.45914489 239.93822209 355.47828265 252.03071498 355.50648181 264.12329653 C355.53533608 276.5970583 355.54901535 289.0707595 355.54729426 301.54455543 C355.54663482 308.52475504 355.55192921 315.50482379 355.57365036 322.48499298 C355.59396715 329.05485523 355.59306166 335.62449073 355.5786171 342.19438362 C355.57654547 344.58787251 355.58112996 346.98137923 355.59333801 349.37483788 C355.77995089 388.53669082 345.42859206 421.70301154 317.63647461 449.98193359 C288.44268061 477.99573891 248.64561647 484.15709534 209.73339844 483.98754883 C207.20385947 483.99134433 204.67432259 483.9968544 202.14479065 484.00392151 C196.05602531 484.0163061 189.96752883 484.01043068 183.87877754 483.99524593 C176.75532391 483.97817337 169.63191972 483.98162232 162.5084519 483.98534001 C149.78163429 483.99118616 137.05491634 483.97717399 124.328125 483.95239258 C112.03869902 483.92846624 99.74940604 483.92139846 87.45996094 483.93188477 C74.00373884 483.94334645 60.54757788 483.9451608 47.09135646 483.93078667 C45.65115687 483.92926118 44.21095727 483.92774082 42.77075768 483.92622566 C41.70846021 483.92508894 41.70846021 483.92508894 40.62470219 483.92392926 C35.68394848 483.91922799 30.74322249 483.92100784 25.80246925 483.92529106 C19.12990541 483.93079056 12.45754923 483.91977354 5.78500938 483.89833641 C3.35443609 483.89283032 0.92384517 483.89224537 -1.50672913 483.89728928 C-41.93423716 483.97058819 -79.24584484 475.46032608 -109.16040039 446.61083984 C-132.32312035 422.54859678 -143.08094622 390.73951163 -143.05084229 357.73036194 C-143.05381341 356.69391759 -143.05678453 355.65747324 -143.05984569 354.58962148 C-143.06846837 351.14103812 -143.07003546 347.69248974 -143.0715332 344.24389648 C-143.07616599 341.76096524 -143.08119127 339.2780347 -143.08657837 336.79510498 C-143.09966128 330.06529588 -143.10617708 323.33550031 -143.11058903 316.60568166 C-143.11336208 312.39394904 -143.11760134 308.18221868 -143.1220932 303.97048759 C-143.13427859 292.28210755 -143.14457892 280.59372931 -143.14796829 268.90534306 C-143.14818786 268.15873308 -143.14840742 267.4121231 -143.14863364 266.64288857 C-143.14885192 265.89461156 -143.1490702 265.14633455 -143.14929509 264.37538248 C-143.14973854 262.85938585 -143.1501851 261.34338921 -143.15063477 259.82739258 C-143.1508562 259.07542472 -143.15107763 258.32345687 -143.15130576 257.54870211 C-143.15524816 245.38244326 -143.17268839 233.21624451 -143.19599429 221.05000884 C-143.2197944 208.52341068 -143.23217408 195.99684257 -143.23333621 183.47022146 C-143.23424819 176.45145382 -143.23987897 169.4327645 -143.25815582 162.41401863 C-143.27530893 155.804087 -143.27674524 149.19427665 -143.26801682 142.58432007 C-143.26725157 140.1718398 -143.27152067 137.75935126 -143.28147507 135.3468914 C-143.42058141 99.50337709 -135.77911877 64.77889871 -109.83618164 38.37646484 C-108.86313067 37.41069198 -107.88799523 36.44701296 -106.91040039 35.48583984 C-106.09958008 34.67630859 -105.28875977 33.86677734 -104.45336914 33.03271484 C-93.565967 22.70502989 -80.75321848 15.11894395 -66.91040039 9.48583984 C-65.78891602 9.02435547 -64.66743164 8.56287109 -63.51196289 8.08740234 C-43.18076396 0.54886791 -21.42798709 -0.10533325 0 0 Z M-50.78540039 59.17333984 C-51.49245117 59.52219238 -52.19950195 59.87104492 -52.92797852 60.23046875 C-69.53521061 68.70533261 -81.51785358 83.20560727 -87.73515892 100.68272305 C-92.32210755 115.52622697 -92.34454035 130.68606258 -92.29858398 146.07543945 C-92.30265876 148.39206691 -92.30800569 150.70869243 -92.31451416 153.02531433 C-92.32808651 159.26504387 -92.32293086 165.5046231 -92.3133769 171.74435496 C-92.30572678 178.30707724 -92.31284075 184.86978754 -92.3175354 191.43251038 C-92.32392234 203.15354425 -92.31406184 214.87451548 -92.29875739 226.5955385 C-92.28536053 237.18262234 -92.28768382 247.76960741 -92.30151367 258.35668945 C-92.31763656 270.70460458 -92.32350787 283.05245692 -92.31467688 295.40038115 C-92.31002617 301.91711612 -92.30930317 308.43378336 -92.31928635 314.95051384 C-92.32802384 321.08125433 -92.32181152 327.2118104 -92.30460358 333.3425312 C-92.3006745 335.57762981 -92.3017104 337.81274423 -92.30839157 340.0478363 C-92.38203753 367.2129639 -89.57651929 390.03366199 -70.22290039 410.67333984 C-47.22768945 432.75715523 -15.84479907 431.64575096 13.9230957 431.61523438 C16.17060881 431.61659252 18.41812169 431.61837476 20.66563416 431.62054443 C26.7215008 431.62507017 32.77735024 431.62334921 38.83321714 431.62016535 C45.20242067 431.61761585 51.57162282 431.61998651 57.94082642 431.62155151 C69.31769213 431.62348185 80.6945484 431.62039302 92.07141252 431.61529218 C102.34635893 431.61082764 112.62129403 431.61160001 122.89624023 431.61621094 C134.87972899 431.6215862 146.86321089 431.62354174 158.84670126 431.62059867 C165.17116353 431.61904874 171.49561805 431.61880659 177.8200798 431.62213516 C183.77099688 431.62504887 189.72189286 431.62297465 195.67280769 431.61724091 C197.84179334 431.6159318 200.0107808 431.61627547 202.1797657 431.61850357 C212.2893713 431.62792182 222.38257413 431.56704568 232.48208618 431.07931519 C233.22593705 431.04581628 233.96978791 431.01231737 234.73617971 430.97780335 C254.52955058 429.88079841 271.56064721 422.29644417 285.48803711 408.02880859 C299.47309031 392.11066784 304.25013995 373.18101366 304.2300415 352.41334534 C304.23301263 351.43830313 304.23598375 350.46326093 304.2390449 349.45867199 C304.24767278 346.21194108 304.24923513 342.9652473 304.25073242 339.71850586 C304.25536486 337.38188092 304.26039009 335.04525674 304.26577759 332.70863342 C304.27886435 326.37344936 304.28533951 320.03827588 304.28978825 313.70308042 C304.29272558 309.73843765 304.29683167 305.77379774 304.30129242 301.80915642 C304.31347878 290.80708374 304.32377866 279.80501297 304.32716751 268.80293369 C304.32738708 268.1000512 304.32760664 267.39716871 304.32783286 266.67298674 C304.32805114 265.96853039 304.32826942 265.26407404 304.32849431 264.53827053 C304.32893776 263.11104429 304.32938432 261.68381804 304.32983398 260.2565918 C304.33005541 259.54865535 304.33027684 258.84071891 304.33050498 258.11132985 C304.3344469 246.65888129 304.35188522 235.2064966 304.37519351 223.75407267 C304.39899462 211.96314893 304.41137336 200.1722571 304.41253543 188.38130897 C304.4134474 181.77447953 304.41940331 175.16772354 304.43735504 168.56091499 C304.45393423 162.33839049 304.45594373 156.11602294 304.44721603 149.89348412 C304.44645085 147.62248944 304.450719 145.35148598 304.46067429 143.080513 C304.57120959 116.27134084 301.36541974 92.34107121 281.95288086 72.25146484 C267.01184939 57.82001835 247.71286073 52.3276666 227.33302307 52.34539795 C226.26027333 52.34242683 225.18752358 52.3394557 224.08226627 52.33639455 C220.49298727 52.32773344 216.90374174 52.32620147 213.31445312 52.32470703 C210.73842803 52.32007694 208.16240362 52.31505202 205.58638 52.30966187 C198.5900773 52.29610919 191.59378035 52.29005822 184.59746671 52.28565121 C180.22245173 52.2828828 175.84743895 52.27864429 171.47242546 52.27414703 C159.34151759 52.26195687 147.21061147 52.25165803 135.07969761 52.24827194 C134.30401908 52.24805238 133.52834055 52.24783281 132.72915661 52.24760659 C131.95169439 52.24738831 131.17423217 52.24717003 130.37321049 52.24694514 C128.79796064 52.24650169 127.22271079 52.24605512 125.64746094 52.24560547 C124.86609412 52.24538404 124.08472729 52.24516261 123.27968269 52.24493447 C110.63591778 52.24099156 97.99221068 52.22355193 85.34846807 52.20024595 C72.34398421 52.1764701 59.33952927 52.16406721 46.33502334 52.16290402 C39.04299928 52.1619906 31.75105051 52.15632288 24.45904732 52.13808441 C17.59307176 52.12097124 10.72724065 52.11947717 3.86124992 52.12822342 C1.35075879 52.12899067 -1.15974017 52.12469259 -3.67021179 52.11476517 C-27.91583978 51.86777722 -27.91583978 51.86777722 -50.78540039 59.17333984 Z " fill="#F7F8E5" transform="translate(405.910400390625,270.51416015625)"/>
<path d="M0 0 C9.76862496 6.26610739 14.83446121 14.4278857 17.39453125 25.59375 C17.78344609 29.25142859 17.80273074 32.8685415 17.77929688 36.54443359 C17.78466965 37.58975754 17.79004242 38.63508148 17.795578 39.71208191 C17.80530473 41.96491024 17.80831573 44.21777581 17.80522156 46.47062302 C17.80071412 50.04542434 17.81482715 53.61973829 17.83361816 57.19448853 C17.87027285 64.78590127 17.88408673 72.37726183 17.89453125 79.96875 C17.90664539 88.76487209 17.92834422 97.56075471 17.97453308 106.35676956 C17.98802048 109.8619169 17.98394759 113.36675499 17.97912598 116.87191772 C18.01997498 133.34645275 18.79332639 147.71769636 30.27734375 160.7265625 C40.94150843 170.69993108 54.19860148 173.73321158 68.3840332 173.75146484 C69.25656738 173.75654556 70.12910156 173.76162628 71.02807617 173.76686096 C72.91264678 173.7775148 74.79722965 173.78615428 76.68181801 173.79298019 C79.67182986 173.80484229 82.66170198 173.82431322 85.6516571 173.84609985 C94.14947824 173.90747291 102.64728275 173.96170632 111.14526367 173.99511719 C116.35356721 174.01613939 121.56161126 174.05149878 126.76976585 174.09587479 C128.74593223 174.1099701 130.72214446 174.1187425 132.69835854 174.12192917 C147.43216777 174.14820576 159.88447724 174.57084797 171.1484375 185.2578125 C178.06367868 192.84897951 180.77696103 200.96417834 180.60546875 211.16796875 C179.74551364 221.05745246 175.23351138 228.20664547 168.08203125 234.84375 C159.78418788 241.59609705 150.93015341 242.74065298 140.59741211 242.77075195 C139.61443649 242.77732315 138.63146088 242.78389435 137.61869812 242.79066467 C134.36558952 242.81036743 131.1125273 242.82206072 127.859375 242.83203125 C126.74153688 242.83610678 125.62369877 242.8401823 124.47198677 242.84438133 C118.54211743 242.86524064 112.61227113 242.87953655 106.68237305 242.88891602 C100.60736287 242.89991105 94.53272601 242.93423088 88.45784664 242.97408772 C83.74666245 243.00047022 79.03556374 243.00862742 74.32431221 243.01219749 C72.08841018 243.01701685 69.85251073 243.0284947 67.61668205 243.04723549 C37.20592195 243.28605954 9.79618744 236.85664415 -13.60546875 216.59375 C-14.37503906 215.95695313 -15.14460938 215.32015625 -15.9375 214.6640625 C-37.13152502 196.68344161 -48.57610742 169.29335999 -51.40672112 142.10255623 C-52.16280287 132.55847983 -51.93565568 122.92603944 -51.94140625 113.359375 C-51.94784535 110.82883634 -51.95457451 108.29829839 -51.96157837 105.76776123 C-51.97349155 100.48953042 -51.97735146 95.21134649 -51.97607422 89.93310547 C-51.9748698 83.85997761 -51.99605928 77.78720333 -52.02756155 71.71416497 C-52.05699018 65.82750325 -52.06404729 59.94098043 -52.06285477 54.05425262 C-52.06520469 51.56809791 -52.0739936 49.08194017 -52.0895195 46.59583282 C-52.10922698 43.11730297 -52.10332397 39.63967883 -52.09130859 36.16113281 C-52.10254761 35.14891159 -52.11378662 34.13669037 -52.12536621 33.09379578 C-52.03405628 22.63299952 -48.86968095 13.2624659 -41.60546875 5.59375 C-29.88938044 -5.50434684 -14.1482793 -7.6362527 0 0 Z " fill="#F7F8E5" transform="translate(443.60546875,376.40625)"/>
<path d="M0 0 C0.84198808 -0.0039821 1.68397617 -0.00796419 2.55147904 -0.01206696 C3.93911264 -0.00332844 3.93911264 -0.00332844 5.35477924 0.00558662 C6.82870301 0.00302335 6.82870301 0.00302335 8.332403 0.00040829 C11.63984638 -0.0028978 14.94708891 0.00813556 18.25451374 0.01904488 C20.61945815 0.01960875 22.98440291 0.0192929 25.34934711 0.01815987 C31.11416892 0.01764423 36.87892444 0.02633352 42.64373108 0.03903519 C49.35071284 0.05331958 56.0576851 0.05632441 62.76467995 0.05861153 C74.72582346 0.06299034 86.68693972 0.07630449 98.64806843 0.09521675 C110.26818423 0.11357073 121.88829263 0.12772959 133.50841999 0.13623238 C134.58255614 0.13702055 134.58255614 0.13702055 135.67839202 0.13782464 C139.27075717 0.14043469 142.86312237 0.14296211 146.45548761 0.14544845 C176.26457336 0.16618675 206.07362728 0.20156587 235.88268757 0.24609566 C236.21268757 0.90609566 236.54268757 1.56609566 236.88268757 2.24609566 C231.31633868 3.18998875 225.95108576 3.38746759 220.31162739 3.3730793 C219.36657921 3.37463929 218.42153104 3.37619928 217.44784504 3.37780654 C214.29126287 3.38178501 211.13472906 3.37863913 207.97814655 3.37549019 C205.71101573 3.37684562 203.44388513 3.37862635 201.17675495 3.38080025 C195.02613082 3.38535745 188.87552347 3.38359211 182.72489905 3.38042116 C176.28816066 3.37788905 169.8514237 3.38023745 163.41468525 3.38180733 C151.91434953 3.3837429 140.41402239 3.38063598 128.91368801 3.37554799 C118.49067172 3.37107938 108.06766656 3.37185743 97.64465046 3.37646675 C85.53281081 3.38182043 73.42097989 3.3838092 61.30913883 3.38085449 C54.90054625 3.37929511 48.49196134 3.37908874 42.08336926 3.38239098 C36.05957621 3.38527816 30.03580421 3.38327834 24.01201344 3.37749672 C21.80048692 3.37617374 19.58895864 3.37655541 17.37743282 3.37875938 C14.36051928 3.38148895 11.34367334 3.37806754 8.32676411 3.3730793 C7.45020694 3.37531002 6.57364977 3.37754074 5.67053026 3.37983906 C1.29337221 3.36578685 -2.80729621 3.12618943 -7.11731243 2.24609566 C-4.04859354 0.20028306 -3.45254848 -0.00360203 0 0 Z " fill="#11110E" transform="translate(398.11731243133545,698.7539043426514)"/>
<path d="M0 0 C0.33 0 0.66 0 1 0 C1 31.35 1 62.7 1 95 C0.01 94.34 -0.98 93.68 -2 93 C-2.35644531 90.86108398 -2.35644531 90.86108398 -2.328125 88.24609375 C-2.32296875 87.30958984 -2.3178125 86.37308594 -2.3125 85.40820312 C-2.291875 84.42787109 -2.27125 83.44753906 -2.25 82.4375 C-2.24484375 81.45330078 -2.2396875 80.46910156 -2.234375 79.45507812 C-2.15386542 72.15386542 -2.15386542 72.15386542 -1 71 C-0.87593185 68.79205589 -0.82197722 66.58015514 -0.79467773 64.36889648 C-0.77982834 63.32992218 -0.77982834 63.32992218 -0.76467896 62.2699585 C-0.7329797 59.97037221 -0.70827349 57.67076523 -0.68359375 55.37109375 C-0.66303148 53.78067982 -0.64203521 52.19027145 -0.62062073 50.59986877 C-0.56532491 46.40610237 -0.5159489 42.21228605 -0.46777344 38.01843262 C-0.41761309 33.74206072 -0.36189856 29.46576166 -0.30664062 25.18945312 C-0.19896726 16.79303027 -0.09754284 8.39654662 0 0 Z " fill="#F1F2DF" transform="translate(394,423)"/>
<path d="M0 0 C1.8871875 0.0309375 1.8871875 0.0309375 3.8125 0.0625 C3.8125 0.3925 3.8125 0.7225 3.8125 1.0625 C30.8725 1.3925 57.9325 1.7225 85.8125 2.0625 C85.8125 2.3925 85.8125 2.7225 85.8125 3.0625 C74.1297864 3.10879062 62.44709453 3.14435254 50.76430798 3.16612434 C45.33982802 3.17657242 39.9154107 3.1907503 34.4909668 3.21337891 C29.2584757 3.23507077 24.02604493 3.24706091 18.79351234 3.25225449 C16.79477297 3.25595682 14.79603699 3.26318632 12.79732323 3.27396011 C10.00307388 3.2884264 7.20907554 3.29047998 4.41479492 3.28955078 C3.58401428 3.29674133 2.75323364 3.30393188 1.89727783 3.31134033 C-1.99058889 3.29730165 -3.87658501 3.26977666 -7.1875 1.0625 C-4.43671116 0.14557039 -2.82801087 -0.04636083 0 0 Z " fill="#F0F1DC" transform="translate(393.1875,700.9375)"/>
<path d="M0 0 C0.66 0 1.32 0 2 0 C2.10655578 6.44070471 1.96205088 12.62641289 1 19 C0.67 19 0.34 19 0 19 C-0.19476139 16.39619004 -0.38108614 13.79224467 -0.5625 11.1875 C-0.61857422 10.44951172 -0.67464844 9.71152344 -0.73242188 8.95117188 C-0.95769724 5.63211484 -1.06255812 3.18767436 0 0 Z " fill="#EAEADE" transform="translate(264,630)"/>
<path d="M0 0 C1.8871875 0.0309375 1.8871875 0.0309375 3.8125 0.0625 C3.8125 0.3925 3.8125 0.7225 3.8125 1.0625 C7.7725 1.3925 11.7325 1.7225 15.8125 2.0625 C15.8125 2.3925 15.8125 2.7225 15.8125 3.0625 C12.54174117 3.1205476 9.27111476 3.15611165 6 3.1875 C5.07123047 3.20425781 4.14246094 3.22101562 3.18554688 3.23828125 C2.29287109 3.24472656 1.40019531 3.25117187 0.48046875 3.2578125 C-0.34171143 3.26828613 -1.1638916 3.27875977 -2.01098633 3.28955078 C-4.1875 3.0625 -4.1875 3.0625 -7.1875 1.0625 C-4.43671116 0.14557039 -2.82801087 -0.04636083 0 0 Z " fill="#EAEAD8" transform="translate(393.1875,700.9375)"/>
<path d="M0 0 C0.33 0 0.66 0 1 0 C1.99250545 5.70690634 2.10477512 11.21408489 2 17 C1.01 16.67 0.02 16.34 -1 16 C-0.67 10.72 -0.34 5.44 0 0 Z " fill="#E0E1D5" transform="translate(264,375)"/>
<path d="M0 0 C0 0.66 0 1.32 0 2 C-3.65456815 2.75241109 -7.31733897 3.40049704 -11 4 C-10.67 3.01 -10.34 2.02 -10 1 C-8.22265625 0.234375 -8.22265625 0.234375 -6.0625 -0.25 C-5.35222656 -0.42015625 -4.64195312 -0.5903125 -3.91015625 -0.765625 C-2 -1 -2 -1 0 0 Z " fill="#0E0E0D" transform="translate(677,748)"/>
<path d="M0 0 C2.52349243 3.12432397 4.27256146 6.38060496 6 10 C2.93738507 8.97912836 1.94220597 8.47189851 0 6 C-0.75 3.375 -0.75 3.375 -1 1 C-0.67 0.67 -0.34 0.34 0 0 Z " fill="#161612" transform="translate(403,558)"/>
<path d="M0 0 C5.75 1.875 5.75 1.875 8 3 C7.67 3.99 7.34 4.98 7 6 C3.535 4.02 3.535 4.02 0 2 C0 1.34 0 0.68 0 0 Z " fill="#141412" transform="translate(325,738)"/>
<path d="M0 0 C0.93065133 2.60582371 1.14917407 3.64198224 0.0625 6.25 C-0.4634375 7.11625 -0.4634375 7.11625 -1 8 C-1.66 7.67 -2.32 7.34 -3 7 C-2.625 4.0625 -2.625 4.0625 -2 1 C-1.34 0.67 -0.68 0.34 0 0 Z " fill="#EFEFE2" transform="translate(269,360)"/>
<path d="M0 0 C0.66 0 1.32 0 2 0 C4.1875 2.3125 4.1875 2.3125 6 5 C5.67 5.99 5.34 6.98 5 8 C2.5 5.6875 2.5 5.6875 0 3 C0 2.01 0 1.02 0 0 Z " fill="#10100E" transform="translate(691,348)"/>
<path d="M0 0 C0 0.99 0 1.98 0 3 C-3.3 2.67 -6.6 2.34 -10 2 C-6.3558226 -0.4294516 -4.28758728 -0.16179575 0 0 Z " fill="#ECECE2" transform="translate(654,322)"/>
</svg>
